<?xml version="1.0" encoding="UTF-8" standalone="no"?> <svg width="64" height="64" viewBox="0 0 64 64" fill="none" xmlns="http://www.w3.org/2000/svg">
<path d="M56 11H3V56H56V11Z" fill="#F9E109"/>
<path d="M35 46C29.6957 46 24.6086 43.8929 20.8579 40.1421C17.1071 36.3914 15 31.3043 15 26V11H3V56H56V46H35Z" fill="#FCBC04"/>
<path d="M37 11H3V39H37V11Z" fill="#84D2F4"/>
<path d="M19 3H3V11H19V3Z" fill="#F9E109"/>
<path d="M15 3H3V11H15V3Z" fill="#FCBC04"/>
<path d="M56 3H19V11H56V3Z" fill="#C4F236"/>
<path d="M53 5H22V9H53V5Z" fill="#A1D51C"/>
<path d="M15 26V11H3V39H19.82C16.7069 35.3846 14.9963 30.771 15 26V26Z" fill="#57B7EB"/>
<path d="M47 15H41V21H47V15Z" fill="#84D2F4"/>
<path d="M47 26H41V32H47V26Z" fill="#84D2F4"/>
<path d="M19 36C15.8174 36 12.7652 34.7357 10.5147 32.4853C8.26428 30.2348 7 27.1826 7 24V11H3V39H37V36H19Z" fill="#57B7EB"/>
<path d="M7 24V11H3V39H19.82C19.0039 38.0433 18.2794 37.0121 17.656 35.92C14.7255 35.5897 12.0191 34.1918 10.0536 31.9932C8.08815 29.7945 7.00111 26.9491 7 24V24Z" fill="#4891D3"/>
<path d="M45 30C44.4696 30 43.9609 29.7893 43.5858 29.4142C43.2107 29.0391 43 28.5304 43 28V26H41V32H47V30H45Z" fill="#57B7EB"/>
<path d="M45 19C44.4696 19 43.9609 18.7893 43.5858 18.4142C43.2107 18.0391 43 17.5304 43 17V15H41V21H47V19H45Z" fill="#57B7EB"/>
<path d="M15.515 35C15.0823 35 14.662 34.8552 14.321 34.5889C13.98 34.3225 13.7378 33.9498 13.633 33.53L12 27H16L17.4 32.589C17.4716 32.8753 17.477 33.1741 17.4158 33.4628C17.3545 33.7515 17.2281 34.0224 17.0464 34.2549C16.8646 34.4874 16.6322 34.6754 16.3668 34.8045C16.1014 34.9336 15.8101 35.0005 15.515 35Z" fill="#F9E109"/>
<path d="M15.093 32.824C14.9036 32.1606 14.9487 31.4522 15.2207 30.8181C15.4926 30.184 15.9748 29.6631 16.586 29.343L16 27H12L13.633 33.53C13.7378 33.9498 13.98 34.3225 14.321 34.5889C14.662 34.8552 15.0823 35 15.515 35C15.5797 34.9959 15.6441 34.9882 15.708 34.977L15.093 32.824Z" fill="#FCBC04"/>
<path d="M12 19V27C15.9458 27.0003 19.8375 27.9188 23.367 29.683L24 30V16L23.367 16.317C19.8375 18.0812 15.9458 18.9997 12 19V19Z" fill="#C4F236"/>
<path d="M12 19V27C10.9391 27 9.92172 26.5786 9.17157 25.8284C8.42143 25.0783 8 24.0609 8 23V23C8 21.9391 8.42143 20.9217 9.17157 20.1716C9.92172 19.4214 10.9391 19 12 19V19Z" fill="#F9E109"/>
<path d="M11 21V19.141C11.326 19.0517 11.662 19.0043 12 19V27C11.2486 26.9987 10.5128 26.7851 9.87746 26.3838C9.24213 25.9826 8.73309 25.41 8.409 24.732C9.16901 24.447 9.82411 23.9372 10.287 23.2704C10.7499 22.6037 10.9986 21.8117 11 21V21Z" fill="#FCBC04"/>
<path d="M16.88 34.44C16.6999 34.6192 16.4861 34.7609 16.251 34.857C16.0159 34.9531 15.764 35.0017 15.51 35C15.0779 34.9985 14.6586 34.8532 14.3182 34.587C13.9778 34.3209 13.7357 33.949 13.63 33.53L12 27H15.02C15.1529 29.577 15.7846 32.1037 16.88 34.44Z" fill="#FCBC04"/>
<path d="M16.88 34.44C16.6999 34.6192 16.4861 34.7609 16.251 34.857C16.0159 34.9531 15.764 35.0017 15.51 35C15.0779 34.9985 14.6586 34.8532 14.3182 34.587C13.9778 34.3209 13.7357 33.949 13.63 33.53L12 27H15.02C15.1529 29.577 15.7846 32.1037 16.88 34.44Z" fill="#FCBC04"/>
<path d="M15.71 34.98C15.64 34.98 15.58 35 15.51 35C15.0779 34.9985 14.6586 34.8532 14.3182 34.587C13.9778 34.3209 13.7357 33.949 13.63 33.53L12 27H15.02C15.0807 28.1307 15.2345 29.2546 15.48 30.36C15.2382 30.7162 15.0779 31.1213 15.0105 31.5465C14.9431 31.9717 14.9702 32.4065 15.09 32.82L15.71 34.98Z" fill="#E59730"/>
<path d="M19.385 24C20.609 24 21.7828 23.5138 22.6483 22.6483C23.5138 21.7828 24 20.609 24 19.385V30L23.367 29.683C19.8375 27.9188 15.9458 27.0003 12 27V19C12.5904 20.476 13.6095 21.7412 14.9258 22.6324C16.2421 23.5236 17.7953 24 19.385 24V24Z" fill="#A1D51C"/>
<path d="M15 26V18.821C14.0044 18.9397 13.0027 18.9995 12 19V27C13.0208 27.0011 14.0407 27.0635 15.054 27.187C15.031 26.793 15 26.4 15 26Z" fill="#A1D51C"/>
<path d="M13.55 27.049C14.05 27.08 14.55 27.127 15.05 27.187C15.031 26.793 15 26.4 15 26V22.675C13.6486 21.7846 12.6018 20.5023 12 19V27C12.511 27 13.022 27.017 13.531 27.048L13.55 27.049Z" fill="#7AB92D"/>
<path d="M61 52V46H58.541C58.363 45.4408 58.1361 44.8984 57.863 44.379L59.607 42.636L55.364 38.393L53.621 40.137C53.1016 39.8639 52.5592 39.637 52 39.459V37H46V39.459C45.4408 39.637 44.8984 39.8639 44.379 40.137L42.636 38.393L38.393 42.636L40.137 44.379C39.8639 44.8984 39.637 45.4408 39.459 46H37V52H39.459C39.637 52.5592 39.8639 53.1016 40.137 53.621L38.393 55.364L42.636 59.607L44.379 57.863C44.8984 58.1361 45.4408 58.363 46 58.541V61H52V58.541C52.5592 58.363 53.1016 58.1361 53.621 57.863L55.364 59.607L59.607 55.364L57.863 53.621C58.1361 53.1016 58.363 52.5592 58.541 52H61ZM49 54C48.0111 54 47.0444 53.7068 46.2221 53.1573C45.3999 52.6079 44.759 51.827 44.3806 50.9134C44.0022 49.9998 43.9031 48.9945 44.0961 48.0245C44.289 47.0546 44.7652 46.1637 45.4645 45.4645C46.1637 44.7652 47.0546 44.289 48.0245 44.0961C48.9945 43.9031 49.9998 44.0022 50.9134 44.3806C51.827 44.759 52.6079 45.3999 53.1573 46.2221C53.7068 47.0444 54 48.0111 54 49C54 50.3261 53.4732 51.5979 52.5355 52.5355C51.5979 53.4732 50.3261 54 49 54Z" fill="#84D2F4"/>
<path d="M55 57C52.8445 56.9996 50.7229 56.4633 48.8261 55.4393C46.9294 54.4152 45.3171 52.9356 44.1343 51.1336C42.9514 49.3316 42.2353 47.2638 42.0502 45.1162C41.8651 42.9687 42.2169 40.8088 43.074 38.831L42.636 38.393L38.393 42.636L40.137 44.379C39.8639 44.8984 39.637 45.4408 39.459 46H37V52H39.459C39.637 52.5592 39.8639 53.1016 40.137 53.621L38.393 55.364L42.636 59.607L44.379 57.863C44.8984 58.1361 45.4408 58.363 46 58.541V61H52V58.541C52.5592 58.363 53.1016 58.1361 53.621 57.863L55.364 59.607L58.447 56.523C57.3246 56.836 56.1652 56.9964 55 57V57Z" fill="#57B7EB"/>
<path d="M3 29C3.26522 29 3.51957 28.8946 3.70711 28.7071C3.89464 28.5196 4 28.2652 4 28V12H52C52.2652 12 52.5196 11.8946 52.7071 11.7071C52.8946 11.5196 53 11.2652 53 11C53 10.7348 52.8946 10.4804 52.7071 10.2929C52.5196 10.1054 52.2652 10 52 10H20V4H55V35.029C55 35.2942 55.1054 35.5486 55.2929 35.7361C55.4804 35.9236 55.7348 36.029 56 36.029C56.2652 36.029 56.5196 35.9236 56.7071 35.7361C56.8946 35.5486 57 35.2942 57 35.029V3C57 2.73478 56.8946 2.48043 56.7071 2.29289C56.5196 2.10536 56.2652 2 56 2H3C2.73478 2 2.48043 2.10536 2.29289 2.29289C2.10536 2.48043 2 2.73478 2 3V28C2 28.2652 2.10536 28.5196 2.29289 28.7071C2.48043 28.8946 2.73478 29 3 29ZM4 4H18V10H4V4Z" fill="#39519D"/>
<path d="M7 8C7.55228 8 8 7.55228 8 7C8 6.44772 7.55228 6 7 6C6.44772 6 6 6.44772 6 7C6 7.55228 6.44772 8 7 8Z" fill="#39519D"/>
<path d="M11 8C11.5523 8 12 7.55228 12 7C12 6.44772 11.5523 6 11 6C10.4477 6 10 6.44772 10 7C10 7.55228 10.4477 8 11 8Z" fill="#39519D"/>
<path d="M15 8C15.5523 8 16 7.55228 16 7C16 6.44772 15.5523 6 15 6C14.4477 6 14 6.44772 14 7C14 7.55228 14.4477 8 15 8Z" fill="#39519D"/>
<path d="M25 6C24.7348 6 24.4804 6.10536 24.2929 6.29289C24.1054 6.48043 24 6.73478 24 7C24 7.26522 24.1054 7.51957 24.2929 7.70711C24.4804 7.89464 24.7348 8 25 8H37C37.2652 8 37.5196 7.89464 37.7071 7.70711C37.8946 7.51957 38 7.26522 38 7C38 6.73478 37.8946 6.48043 37.7071 6.29289C37.5196 6.10536 37.2652 6 37 6H25Z" fill="#39519D"/>
<path d="M42 6C41.7348 6 41.4804 6.10536 41.2929 6.29289C41.1054 6.48043 41 6.73478 41 7C41 7.26522 41.1054 7.51957 41.2929 7.70711C41.4804 7.89464 41.7348 8 42 8H50C50.2652 8 50.5196 7.89464 50.7071 7.70711C50.8946 7.51957 51 7.26522 51 7C51 6.73478 50.8946 6.48043 50.7071 6.29289C50.5196 6.10536 50.2652 6 50 6H42Z" fill="#39519D"/>
<path d="M49 43C47.6119 42.9997 46.2665 43.4807 45.1933 44.3611C44.1201 45.2416 43.3853 46.4669 43.1142 47.8283C42.8432 49.1897 43.0525 50.603 43.7067 51.8274C44.3608 53.0517 45.4192 54.0114 46.7016 54.5429C47.984 55.0743 49.411 55.1447 50.7394 54.7419C52.0679 54.3392 53.2156 53.4883 53.987 52.3342C54.7584 51.1802 55.1058 49.7943 54.9699 48.4128C54.8341 47.0314 54.2234 45.7397 53.242 44.758C52.6864 44.1988 52.0254 43.7555 51.2972 43.4538C50.5691 43.152 49.7882 42.9977 49 43V43ZM51.828 51.828C51.0664 52.5559 50.0535 52.9621 49 52.9621C47.9465 52.9621 46.9336 52.5559 46.172 51.828C45.6125 51.2686 45.2314 50.5559 45.0769 49.7799C44.9225 49.004 45.0017 48.1997 45.3044 47.4687C45.6071 46.7377 46.1198 46.1129 46.7776 45.6733C47.4354 45.2338 48.2088 44.9991 49 44.9991C49.7912 44.9991 50.5646 45.2338 51.2224 45.6733C51.8802 46.1129 52.3929 46.7377 52.6956 47.4687C52.9983 48.1997 53.0775 49.004 52.9231 49.7799C52.7686 50.5559 52.3875 51.2686 51.828 51.828V51.828Z" fill="#39519D"/>
<path d="M61 45H59.244C59.189 44.858 59.133 44.72 59.073 44.583L60.313 43.343C60.5005 43.1555 60.6058 42.9012 60.6058 42.636C60.6058 42.3708 60.5005 42.1165 60.313 41.929L56.071 37.687C55.8835 37.4995 55.6292 37.3942 55.364 37.3942C55.0988 37.3942 54.8445 37.4995 54.657 37.687L53.417 38.927C53.28 38.867 53.142 38.811 53 38.756V37C53 36.7348 52.8946 36.4804 52.7071 36.2929C52.5196 36.1054 52.2652 36 52 36H46C45.7348 36 45.4804 36.1054 45.2929 36.2929C45.1054 36.4804 45 36.7348 45 37V38.756C44.858 38.811 44.72 38.867 44.583 38.927L43.343 37.687C43.1555 37.4995 42.9012 37.3942 42.636 37.3942C42.3708 37.3942 42.1165 37.4995 41.929 37.687L37.687 41.929C37.4995 42.1165 37.3942 42.3708 37.3942 42.636C37.3942 42.9012 37.4995 43.1555 37.687 43.343L38.927 44.583C38.867 44.72 38.811 44.858 38.756 45H37C36.7348 45 36.4804 45.1054 36.2929 45.2929C36.1054 45.4804 36 45.7348 36 46V52C36 52.2652 36.1054 52.5196 36.2929 52.7071C36.4804 52.8946 36.7348 53 37 53H38.756C38.811 53.142 38.867 53.28 38.927 53.417L37.687 54.657C37.5898 54.7547 37.5139 54.8715 37.464 55H4V40H37C37.2652 40 37.5196 39.8946 37.7071 39.7071C37.8946 39.5196 38 39.2652 38 39V15C38 14.7348 37.8946 14.4804 37.7071 14.2929C37.5196 14.1054 37.2652 14 37 14C36.7348 14 36.4804 14.1054 36.2929 14.2929C36.1054 14.4804 36 14.7348 36 15V38H4V32C4 31.7348 3.89464 31.4804 3.70711 31.2929C3.51957 31.1054 3.26522 31 3 31C2.73478 31 2.48043 31.1054 2.29289 31.2929C2.10536 31.4804 2 31.7348 2 32V56C2 56.2652 2.10536 56.5196 2.29289 56.7071C2.48043 56.8946 2.73478 57 3 57H38.615L41.929 60.313C42.1165 60.5005 42.3708 60.6058 42.636 60.6058C42.9012 60.6058 43.1555 60.5005 43.343 60.313L44.583 59.073C44.72 59.133 44.858 59.189 45 59.244V61C45 61.2652 45.1054 61.5196 45.2929 61.7071C45.4804 61.8946 45.7348 62 46 62H52C52.2652 62 52.5196 61.8946 52.7071 61.7071C52.8946 61.5196 53 61.2652 53 61V59.244C53.142 59.189 53.28 59.133 53.417 59.073L54.657 60.313C54.8445 60.5005 55.0988 60.6058 55.364 60.6058C55.6292 60.6058 55.8835 60.5005 56.071 60.313L57.485 58.9C57.6672 58.7114 57.768 58.4588 57.7657 58.1966C57.7634 57.9344 57.6582 57.6836 57.4728 57.4982C57.2874 57.3128 57.0366 57.2076 56.7744 57.2053C56.5122 57.203 56.2596 57.3038 56.071 57.486L55.364 58.193L54.332 57.16C54.1814 57.0093 53.9865 56.9106 53.7759 56.8784C53.5652 56.8462 53.3498 56.8822 53.161 56.981C52.6932 57.2242 52.2046 57.425 51.701 57.581C51.498 57.6448 51.3206 57.7718 51.1948 57.9434C51.0689 58.1149 51.001 58.3222 51.001 58.535V60H47V58.535C47 58.3222 46.9321 58.1149 46.8062 57.9434C46.6804 57.7718 46.503 57.6448 46.3 57.581C45.796 57.4251 45.3071 57.2243 44.839 56.981C44.6502 56.8822 44.4348 56.8462 44.2241 56.8784C44.0135 56.9106 43.8186 57.0093 43.668 57.16L42.636 58.192L39.808 55.364L40.84 54.332C40.9907 54.1814 41.0894 53.9865 41.1216 53.7759C41.1538 53.5652 41.1178 53.3498 41.019 53.161C40.7757 52.6929 40.5749 52.204 40.419 51.7C40.3552 51.497 40.2282 51.3196 40.0566 51.1938C39.8851 51.0679 39.6778 51 39.465 51H38V47H39.466C39.6788 47 39.8861 46.9321 40.0576 46.8062C40.2292 46.6804 40.3562 46.503 40.42 46.3C40.576 45.7964 40.7768 45.3078 41.02 44.84C41.1188 44.6512 41.1548 44.4358 41.1226 44.2251C41.0904 44.0145 40.9917 43.8196 40.841 43.669L39.809 42.637L42.637 39.809L43.669 40.841C43.8196 40.9917 44.0145 41.0904 44.2251 41.1226C44.4358 41.1548 44.6512 41.1188 44.84 41.02C45.3078 40.7768 45.7964 40.576 46.3 40.42C46.503 40.3562 46.6804 40.2292 46.8062 40.0576C46.9321 39.8861 47 39.6788 47 39.466V38H51V39.465C51 39.6778 51.0679 39.8851 51.1938 40.0566C51.3196 40.2282 51.497 40.3552 51.7 40.419C52.204 40.5749 52.6929 40.7757 53.161 41.019C53.3498 41.1178 53.5652 41.1538 53.7759 41.1216C53.9865 41.0894 54.1814 40.9907 54.332 40.84L55.364 39.808L58.192 42.636L57.16 43.668C57.0093 43.8186 56.9106 44.0135 56.8784 44.2241C56.8462 44.4348 56.8822 44.6502 56.981 44.839C57.2243 45.3071 57.4251 45.796 57.581 46.3C57.6448 46.503 57.7718 46.6804 57.9434 46.8062C58.1149 46.9321 58.3222 47 58.535 47H60V51H58.534C58.3212 51 58.1139 51.0679 57.9424 51.1938C57.7708 51.3196 57.6438 51.497 57.58 51.7C57.424 52.2036 57.2232 52.6922 56.98 53.16C56.8812 53.3488 56.8452 53.5642 56.8774 53.7749C56.9096 53.9855 57.0083 54.1804 57.159 54.331L58.9 56.071C59.0886 56.2532 59.3412 56.354 59.6034 56.3517C59.8656 56.3494 60.1164 56.2442 60.3018 56.0588C60.4872 55.8734 60.5924 55.6226 60.5947 55.3604C60.597 55.0982 60.4962 54.8456 60.314 54.657L59.074 53.417C59.134 53.28 59.19 53.142 59.245 53H61C61.2652 53 61.5196 52.8946 61.7071 52.7071C61.8946 52.5196 62 52.2652 62 52V46C62 45.7348 61.8946 45.4804 61.7071 45.2929C61.5196 45.1054 61.2652 45 61 45Z" fill="#39519D"/>
<path d="M29 43H13C12.7348 43 12.4804 43.1054 12.2929 43.2929C12.1054 43.4804 12 43.7348 12 44C12 44.2652 12.1054 44.5196 12.2929 44.7071C12.4804 44.8946 12.7348 45 13 45H29C29.2652 45 29.5196 44.8946 29.7071 44.7071C29.8946 44.5196 30 44.2652 30 44C30 43.7348 29.8946 43.4804 29.7071 43.2929C29.5196 43.1054 29.2652 43 29 43Z" fill="#39519D"/>
<path d="M30 48C30 47.7348 29.8946 47.4804 29.7071 47.2929C29.5196 47.1054 29.2652 47 29 47H8C7.73478 47 7.48043 47.1054 7.29289 47.2929C7.10536 47.4804 7 47.7348 7 48C7 48.2652 7.10536 48.5196 7.29289 48.7071C7.48043 48.8946 7.73478 49 8 49H29C29.2652 49 29.5196 48.8946 29.7071 48.7071C29.8946 48.5196 30 48.2652 30 48Z" fill="#39519D"/>
<path d="M8 51C7.73478 51 7.48043 51.1054 7.29289 51.2929C7.10536 51.4804 7 51.7348 7 52C7 52.2652 7.10536 52.5196 7.29289 52.7071C7.48043 52.8946 7.73478 53 8 53H22C22.2652 53 22.5196 52.8946 22.7071 52.7071C22.8946 52.5196 23 52.2652 23 52C23 51.7348 22.8946 51.4804 22.7071 51.2929C22.5196 51.1054 22.2652 51 22 51H8Z" fill="#39519D"/>
<path d="M28 19C28.1972 18.9998 28.3899 18.9414 28.554 18.832L31.554 16.832C31.6633 16.7591 31.7571 16.6654 31.8301 16.5563C31.9032 16.4471 31.954 16.3247 31.9798 16.1959C32.0055 16.0671 32.0056 15.9345 31.9801 15.8056C31.9545 15.6768 31.9039 15.5543 31.831 15.445C31.7581 15.3357 31.6644 15.2419 31.5553 15.1689C31.4461 15.0958 31.3237 15.045 31.1949 15.0192C31.0661 14.9935 30.9335 14.9934 30.8046 15.0189C30.6758 15.0445 30.5533 15.0951 30.444 15.168L27.444 17.168C27.2654 17.2871 27.1298 17.4606 27.0574 17.6627C26.9849 17.8649 26.9795 18.0849 27.0419 18.2904C27.1042 18.4959 27.2311 18.6758 27.4036 18.8036C27.5762 18.9314 27.7853 19.0003 28 19Z" fill="#39519D"/>
<path d="M33 23C33 22.7348 32.8946 22.4804 32.7071 22.2929C32.5196 22.1054 32.2652 22 32 22H28C27.7348 22 27.4804 22.1054 27.2929 22.2929C27.1054 22.4804 27 22.7348 27 23C27 23.2652 27.1054 23.5196 27.2929 23.7071C27.4804 23.8946 27.7348 24 28 24H32C32.2652 24 32.5196 23.8946 32.7071 23.7071C32.8946 23.5196 33 23.2652 33 23Z" fill="#39519D"/>
<path d="M27.168 27.445C27.0951 27.5542 27.0444 27.6768 27.0189 27.8056C26.9934 27.9345 26.9935 28.0671 27.0192 28.1959C27.0449 28.3247 27.0958 28.4471 27.1688 28.5563C27.2419 28.6654 27.3357 28.7591 27.445 28.832L30.445 30.832C30.6657 30.9792 30.9358 31.0327 31.1959 30.9807C31.456 30.9288 31.6848 30.7757 31.832 30.555C31.9792 30.3343 32.0327 30.0642 31.9808 29.8041C31.9288 29.544 31.7757 29.3152 31.555 29.168L28.555 27.168C28.4457 27.0951 28.3232 27.0444 28.1944 27.0189C28.0655 26.9934 27.9329 26.9935 27.8041 27.0192C27.6753 27.0449 27.5528 27.0957 27.4437 27.1688C27.3346 27.2419 27.2409 27.3357 27.168 27.445Z" fill="#39519D"/>
<path d="M24 23C24.2652 23 24.5196 22.8947 24.7071 22.7071C24.8946 22.5196 25 22.2652 25 22V16C25.0001 15.8295 24.9566 15.6619 24.8736 15.5129C24.7907 15.364 24.671 15.2388 24.526 15.1491C24.381 15.0594 24.2155 15.0083 24.0452 15.0006C23.8749 14.9929 23.7055 15.0288 23.553 15.105L22.919 15.422C19.5272 17.1128 15.7899 17.9952 12 18C10.7441 17.9976 9.53349 18.4688 8.60962 19.3195C7.68575 20.1702 7.11656 21.3379 7.0156 22.5898C6.91464 23.8416 7.28932 25.0855 8.06491 26.0732C8.84049 27.061 9.95996 27.7201 11.2 27.919L12.664 33.772C12.7448 34.1595 12.903 34.5267 13.1291 34.8516C13.3553 35.1765 13.6447 35.4524 13.9801 35.6627C14.3154 35.873 14.6898 36.0134 15.0807 36.0756C15.4717 36.1377 15.8711 36.1202 16.2552 36.0242C16.6392 35.9282 16.9999 35.7556 17.3156 35.5168C17.6313 35.2781 17.8956 34.978 18.0925 34.6346C18.2894 34.2912 18.415 33.9116 18.4616 33.5185C18.5083 33.1254 18.4751 32.727 18.364 32.347L17.432 28.621C19.3313 29.0531 21.1723 29.7101 22.916 30.578L23.549 30.895C23.7016 30.9721 23.8715 31.0088 24.0424 31.0016C24.2133 30.9943 24.3794 30.9434 24.525 30.8536C24.6705 30.7638 24.7906 30.6382 24.8738 30.4888C24.957 30.3393 25.0004 30.171 25 30V26C25 25.7348 24.8946 25.4804 24.7071 25.2929C24.5196 25.1054 24.2652 25 24 25C23.7348 25 23.4804 25.1054 23.2929 25.2929C23.1054 25.4804 23 25.7348 23 26V28.4C20.8516 27.4226 18.5827 26.7356 16.253 26.357L16.224 26.352C15.1572 26.175 14.0805 26.0642 13 26.02V19.98C16.4565 19.8453 19.8534 19.0368 23 17.6V22C23 22.2652 23.1054 22.5196 23.2929 22.7071C23.4804 22.8947 23.7348 23 24 23ZM9 23C9.00076 22.3797 9.19338 21.7749 9.55144 21.2684C9.90951 20.7619 10.4155 20.3786 11 20.171V25.829C10.4155 25.6214 9.90951 25.2381 9.55144 24.7316C9.19338 24.2251 9.00076 23.6203 9 23ZM16.427 32.831C16.457 32.9508 16.4631 33.0753 16.445 33.1974C16.4269 33.3195 16.3849 33.4369 16.3215 33.5428C16.258 33.6487 16.1743 33.7411 16.0751 33.8146C15.9759 33.8882 15.8633 33.9415 15.7435 33.9715C15.6237 34.0015 15.4992 34.0076 15.3771 33.9895C15.255 33.9714 15.1376 33.9294 15.0317 33.866C14.9258 33.8025 14.8334 33.7188 14.7599 33.6196C14.6863 33.5205 14.633 33.4078 14.603 33.288L13.29 28.038C13.955 28.074 14.617 28.138 15.277 28.232L16.427 32.831Z" fill="#39519D"/>
<path d="M48 15C48 14.7348 47.8946 14.4804 47.7071 14.2929C47.5196 14.1054 47.2652 14 47 14H41C40.7348 14 40.4804 14.1054 40.2929 14.2929C40.1054 14.4804 40 14.7348 40 15V21C40 21.2652 40.1054 21.5196 40.2929 21.7071C40.4804 21.8946 40.7348 22 41 22H47C47.2652 22 47.5196 21.8946 47.7071 21.7071C47.8946 21.5196 48 21.2652 48 21V15ZM46 20H42V16H46V20Z" fill="#39519D"/>
<path d="M47 25H41C40.7348 25 40.4804 25.1054 40.2929 25.2929C40.1054 25.4804 40 25.7348 40 26V32C40 32.2652 40.1054 32.5196 40.2929 32.7071C40.4804 32.8946 40.7348 33 41 33H47C47.2652 33 47.5196 32.8946 47.7071 32.7071C47.8946 32.5196 48 32.2652 48 32V26C48 25.7348 47.8946 25.4804 47.7071 25.2929C47.5196 25.1054 47.2652 25 47 25ZM46 31H42V27H46V31Z" fill="#39519D"/>
<path d="M52 14H51C50.7348 14 50.4804 14.1054 50.2929 14.2929C50.1054 14.4804 50 14.7348 50 15C50 15.2652 50.1054 15.5196 50.2929 15.7071C50.4804 15.8946 50.7348 16 51 16H52C52.2652 16 52.5196 15.8946 52.7071 15.7071C52.8946 15.5196 53 15.2652 53 15C53 14.7348 52.8946 14.4804 52.7071 14.2929C52.5196 14.1054 52.2652 14 52 14Z" fill="#39519D"/>
<path d="M52 18H51C50.7348 18 50.4804 18.1054 50.2929 18.2929C50.1054 18.4804 50 18.7348 50 19C50 19.2652 50.1054 19.5196 50.2929 19.7071C50.4804 19.8946 50.7348 20 51 20H52C52.2652 20 52.5196 19.8946 52.7071 19.7071C52.8946 19.5196 53 19.2652 53 19C53 18.7348 52.8946 18.4804 52.7071 18.2929C52.5196 18.1054 52.2652 18 52 18Z" fill="#39519D"/>
<path d="M52 25H51C50.7348 25 50.4804 25.1054 50.2929 25.2929C50.1054 25.4804 50 25.7348 50 26C50 26.2652 50.1054 26.5196 50.2929 26.7071C50.4804 26.8946 50.7348 27 51 27H52C52.2652 27 52.5196 26.8946 52.7071 26.7071C52.8946 26.5196 53 26.2652 53 26C53 25.7348 52.8946 25.4804 52.7071 25.2929C52.5196 25.1054 52.2652 25 52 25Z" fill="#39519D"/>
<path d="M52 29H51C50.7348 29 50.4804 29.1054 50.2929 29.2929C50.1054 29.4804 50 29.7348 50 30C50 30.2652 50.1054 30.5196 50.2929 30.7071C50.4804 30.8946 50.7348 31 51 31H52C52.2652 31 52.5196 30.8946 52.7071 30.7071C52.8946 30.5196 53 30.2652 53 30C53 29.7348 52.8946 29.4804 52.7071 29.2929C52.5196 29.1054 52.2652 29 52 29Z" fill="#39519D"/>
</svg>
