<?xml version="1.0" encoding="UTF-8" standalone="no"?> <svg width="512" height="512" viewBox="0 0 512 512" fill="none" xmlns="http://www.w3.org/2000/svg">
<path d="M160 152H64V288H160V152Z" fill="#F78F9C"/>
<path d="M448 56H352V280H448V56Z" fill="#F78F9C"/>
<path d="M72 384H56V448H72V384Z" fill="#576CD3"/>
<path d="M456 384H440V448H456V384Z" fill="#576CD3"/>
<path d="M424 453.991V472.778L472 443.24V424.453L424 453.991Z" fill="#576CD3"/>
<path d="M384 264H128V440H384V264Z" fill="#576CD3"/>
<path d="M280 440H232L216 488H296L280 440Z" fill="#7F9AE5"/>
<path d="M304 384V320L256 296L208 320V384L256 408L304 384Z" fill="#31C292"/>
<path d="M280 368H264V348.944L256 344.944L243.578 351.155L236.422 336.844L252.422 328.844C253.533 328.289 254.758 328 256 328C257.242 328 258.467 328.289 259.578 328.844L275.578 336.844C276.907 337.509 278.024 338.53 278.805 339.794C279.586 341.058 280 342.514 280 344V368Z" fill="#76D6B4"/>
<path d="M384 264V440L488 368V200L384 264Z" fill="#7F9AE5"/>
<path d="M128 264L24 200V368L128 440" fill="#7F9AE5"/>
<path d="M351.802 227.111C349.349 216.071 344.583 205.677 337.819 196.614C331.054 187.551 322.445 180.025 312.559 174.533L272 152H240L199.441 174.533C189.555 180.025 180.946 187.551 174.181 196.614C167.417 205.677 162.651 216.071 160.198 227.111L152 264H360L351.802 227.111Z" fill="#31C292"/>
<path d="M127.999 112H103.999C101.877 111.999 99.8422 111.157 98.3418 109.656L10.3418 21.6563L21.6563 10.3428L107.312 95.9995H127.999V112Z" fill="#76D6B4"/>
<path d="M160 88H136C127.163 88 120 95.1634 120 104V104C120 112.837 127.163 120 136 120H160C168.837 120 176 112.837 176 104V104C176 95.1634 168.837 88 160 88Z" fill="#00B378"/>
<path d="M400 120C408.837 120 416 112.837 416 104C416 95.1634 408.837 88 400 88C391.163 88 384 95.1634 384 104C384 112.837 391.163 120 400 120Z" fill="#FFC7D3"/>
<path d="M400 184C408.837 184 416 176.837 416 168C416 159.163 408.837 152 400 152C391.163 152 384 159.163 384 168C384 176.837 391.163 184 400 184Z" fill="#FFC7D3"/>
<path d="M112 216C120.837 216 128 208.837 128 200C128 191.163 120.837 184 112 184C103.163 184 96 191.163 96 200C96 208.837 103.163 216 112 216Z" fill="#FFC7D3"/>
<path d="M286.111 32H225.726C222.642 32 219.589 32.6074 216.74 33.7874C213.891 34.9675 211.302 36.6972 209.122 38.8777V38.8777C206.327 41.6729 204.282 45.1287 203.178 48.9245C202.074 52.7203 201.947 56.7334 202.807 60.5918L208.751 87.249L304 88L308.175 79.6483C315.951 64.0965 319.999 46.9478 320 29.5603V24C309.477 29.261 297.875 32 286.111 32V32Z" fill="#3F589E"/>
<path d="M295.998 79.9996L269.868 68.801C261.051 65.022 251.303 63.9719 241.883 65.786C232.463 67.6002 223.803 72.1954 217.019 78.9788L215.998 79.9996L208.749 87.2486C207.75 88.248 207.002 89.4706 206.568 90.8156C206.134 92.1606 206.025 93.5896 206.252 94.9847C206.478 96.3798 207.033 97.7012 207.87 98.8399C208.708 99.9786 209.803 100.902 211.068 101.534C212.549 102.275 213.795 103.414 214.666 104.823C215.537 106.232 215.998 107.856 215.998 109.512V116.775C215.998 122.773 217.348 128.695 219.946 134.102C222.545 139.509 226.326 144.262 231.011 148.009L246.003 160.003C248.84 162.273 252.365 163.51 255.998 163.51C259.631 163.51 263.156 162.273 265.993 160.003L280.986 148.009C285.67 144.262 289.452 139.509 292.05 134.102C294.649 128.695 295.998 122.773 295.998 116.775V104L300.929 101.534C302.193 100.902 303.289 99.9786 304.126 98.8399C304.964 97.7012 305.518 96.3799 305.745 94.9848C305.971 93.5896 305.863 92.1607 305.429 90.8156C304.994 89.4706 304.247 88.248 303.247 87.2486L295.998 79.9996Z" fill="#FFC7D3"/>
<path d="M312 480H200V496H312V480Z" fill="#576CD3"/>
<path d="M40 424.453V443.24L88 472.778V453.991L40 424.453Z" fill="#576CD3"/>
<path d="M208.11 263.999L215.891 217.314L200.107 214.684L191.916 263.999H208.11Z" fill="#76D6B4"/>
<path d="M320.082 263.999L311.891 214.684L296.107 217.314L303.888 263.999H320.082Z" fill="#76D6B4"/>
<path d="M204.422 391.155L252.422 415.155C253.533 415.711 254.758 416 256 416C257.242 416 258.467 415.711 259.578 415.155L307.578 391.155C308.907 390.491 310.024 389.469 310.805 388.205C311.586 386.942 312 385.485 312 384V320C312 318.514 311.586 317.058 310.805 315.794C310.024 314.53 308.907 313.509 307.578 312.844L259.578 288.844C258.467 288.289 257.242 288 256 288C254.758 288 253.533 288.289 252.422 288.844L204.422 312.844C203.093 313.509 201.976 314.53 201.195 315.794C200.414 317.058 200 318.514 200 320V384C200 385.485 200.414 386.942 201.195 388.205C201.976 389.469 203.093 390.491 204.422 391.155V391.155ZM216 324.944L256 304.944L296 324.944V379.055L256 399.055L216 379.055V324.944Z" fill="#2C3F68"/>
<path d="M264 348.944V368H280V344C280 342.514 279.586 341.058 278.805 339.794C278.024 338.53 276.907 337.509 275.578 336.844L259.578 328.844C258.467 328.289 257.242 328 256 328C254.758 328 253.533 328.289 252.422 328.844L236.422 336.844L243.578 351.155L256 344.944L264 348.944Z" fill="#2C3F68"/>
<path d="M491.902 193.015C490.66 192.321 489.255 191.971 487.832 192.001C486.409 192.031 485.02 192.44 483.808 193.186L381.736 255.999H366.417L359.612 225.374C356.91 213.232 351.665 201.8 344.225 191.831C336.784 181.862 327.316 173.583 316.443 167.539L288.546 152.04C293.43 147.557 297.327 142.106 299.987 136.035C302.648 129.963 304.015 123.403 304 116.774V108.943L304.509 108.689C308.181 106.857 311.061 103.751 312.609 99.9502C314.158 96.1498 314.27 91.9156 312.924 88.0386L315.331 83.2256C323.642 66.5553 327.978 48.1866 328 29.5596V23.9991C328 22.6354 327.651 21.2943 326.987 20.1032C326.323 18.9122 325.366 17.9106 324.206 17.1937C323.046 16.4768 321.722 16.0683 320.359 16.0071C318.997 15.9459 317.642 16.2339 316.422 16.8438C307.006 21.5375 296.632 23.9866 286.111 23.9991H225.727C221.01 23.9989 216.354 25.0584 212.103 27.0992C207.851 29.1401 204.112 32.1102 201.162 35.79C198.212 39.4699 196.127 43.7655 195.06 48.3595C193.993 52.9535 193.973 57.7284 194.999 62.3316L200.171 85.5283C199.094 87.5219 198.429 89.7116 198.215 91.9672C198.002 94.2229 198.243 96.4985 198.926 98.6589C199.609 100.819 200.719 102.821 202.19 104.544C203.662 106.267 205.464 107.676 207.491 108.689C207.645 108.765 207.773 108.882 207.863 109.028C207.953 109.173 208.001 109.341 208 109.512V116.774C207.985 123.403 209.352 129.963 212.013 136.035C214.674 142.106 218.57 147.557 223.454 152.04L195.557 167.539C184.684 173.583 175.216 181.862 167.775 191.831C160.335 201.8 155.09 213.232 152.388 225.375L145.583 255.999H130.264L28.1924 193.186C26.9802 192.44 25.5909 192.031 24.168 192.001C22.745 191.971 21.3398 192.321 20.0973 193.015C18.8548 193.71 17.8201 194.723 17.0999 195.951C16.3796 197.178 15.9999 198.576 16 199.999V367.999C16.0001 369.292 16.3137 370.566 16.9139 371.712C17.5141 372.857 18.383 373.84 19.4463 374.577L56 399.883V434.298L40 424.452V443.239L88 472.777V453.89L72 444.144V410.96L123.446 446.577L123.448 446.574C124.784 447.503 126.373 448.001 128 447.999H220.9L210.234 479.999H200V495.999H312V479.999H301.766L291.1 447.999H384C385.627 448.001 387.216 447.503 388.552 446.574L388.554 446.577L440 410.96V444.144L424 453.99V472.777L472 443.239V424.452L456 434.298V399.883L492.554 374.577C493.617 373.84 494.486 372.857 495.086 371.712C495.686 370.566 496 369.292 496 367.999V199.999C496 198.576 495.62 197.178 494.9 195.95C494.18 194.723 493.145 193.71 491.902 193.015ZM120 424.731L32 363.808V214.315L120 268.469V424.731ZM210.616 58.8492C210.111 56.5856 210.122 54.2375 210.646 51.9783C211.171 49.7192 212.196 47.6068 213.647 45.7972C215.097 43.9877 216.936 42.5271 219.027 41.5235C221.118 40.5199 223.407 39.999 225.727 39.9991H286.111C294.832 39.9898 303.498 38.6251 311.8 35.9537C310.959 49.3168 307.562 62.3944 301.792 74.4769L301.657 74.3423C300.937 73.6226 300.087 73.0469 299.151 72.6461L273.021 61.4473C263.183 57.1926 252.325 55.867 241.752 57.6296C231.178 59.3921 221.338 64.1681 213.411 71.3843L210.616 58.8492ZM214.647 94.3785C214.517 94.3133 214.404 94.2181 214.317 94.1006C214.231 93.9832 214.174 93.8469 214.15 93.7029C214.127 93.559 214.138 93.4116 214.183 93.2728C214.228 93.134 214.305 93.0079 214.408 92.9048L222.678 84.6353C228.317 78.9615 235.535 75.1178 243.391 73.6049C251.246 72.092 259.375 72.9801 266.719 76.1534L291.433 86.7452L297.592 92.9048C297.695 93.0079 297.772 93.134 297.817 93.2728C297.862 93.4116 297.873 93.559 297.85 93.7029C297.826 93.8469 297.769 93.9832 297.682 94.1006C297.596 94.2181 297.483 94.3133 297.353 94.3785L292.422 96.8438C291.093 97.5083 289.976 98.5296 289.195 99.7934C288.414 101.057 288 102.513 288 103.999V116.774C288.011 121.575 286.937 126.316 284.858 130.643C282.778 134.971 279.747 138.771 275.991 141.762L260.998 153.756C259.583 154.898 257.819 155.521 256 155.521C254.181 155.521 252.417 154.898 251.002 153.756L236.01 141.762C232.254 138.772 229.222 134.971 227.143 130.644C225.063 126.316 223.988 121.575 224 116.774V109.512C224.011 106.367 223.14 103.283 221.487 100.608C219.834 97.9334 217.465 95.7752 214.647 94.3785ZM168.007 228.846C170.218 218.911 174.509 209.558 180.596 201.401C186.684 193.245 194.431 186.471 203.326 181.525L236.833 162.91L241.008 166.25C245.253 169.677 250.544 171.546 256 171.546C261.456 171.546 266.747 169.677 270.992 166.25L275.167 162.91L308.674 181.525C317.569 186.471 325.316 193.245 331.403 201.401C337.491 209.557 341.782 218.911 343.993 228.845L350.027 255.999H318.777L311.892 214.684L296.108 217.314L302.556 255.999H209.444L215.892 217.314L200.108 214.684L193.223 255.999H161.973L168.007 228.846ZM227.1 479.999L237.766 447.999H274.234L284.9 479.999H227.1ZM376 431.999H136V271.999H376V431.999ZM480 363.808L392 424.731V268.469L480 214.315V363.808Z" fill="#2C3F68"/>
<path d="M103.999 112H113.375C115.034 116.675 118.099 120.723 122.15 123.587C126.2 126.452 131.038 127.993 135.999 128H159.999C166.364 128 172.469 125.471 176.97 120.97C181.47 116.469 183.999 110.365 183.999 104C183.999 97.6343 181.47 91.5298 176.97 87.0289C172.469 82.5281 166.364 79.9995 159.999 79.9995H135.999C131.038 80.0058 126.2 81.547 122.15 84.4116C118.099 87.2762 115.034 91.324 113.375 95.9995H107.312L21.6563 10.3428L10.3418 21.6563L98.3418 109.656C99.8422 111.157 101.877 111.999 103.999 112ZM135.999 95.9995H159.999C162.121 95.9995 164.156 96.8424 165.656 98.3427C167.156 99.8429 167.999 101.878 167.999 104C167.999 106.121 167.156 108.156 165.656 109.656C164.156 111.157 162.121 112 159.999 112H135.999C133.877 112 131.842 111.157 130.342 109.656C128.842 108.156 127.999 106.121 127.999 104C127.999 101.878 128.842 99.8429 130.342 98.3427C131.842 96.8424 133.877 95.9995 135.999 95.9995Z" fill="#2C3F68"/>
<path d="M360 64H440V200H456V56C456 53.8783 455.157 51.8435 453.657 50.3432C452.157 48.8429 450.122 48 448 48H352C349.878 48 347.843 48.8429 346.343 50.3432C344.843 51.8435 344 53.8783 344 56V176H360V64Z" fill="#2C3F68"/>
<path d="M400 80C395.253 80 390.613 81.4076 386.666 84.0447C382.72 86.6819 379.643 90.4302 377.827 94.8156C376.01 99.201 375.535 104.027 376.461 108.682C377.387 113.338 379.673 117.614 383.029 120.971C386.386 124.327 390.662 126.613 395.318 127.539C399.973 128.465 404.799 127.99 409.184 126.173C413.57 124.357 417.318 121.28 419.955 117.334C422.592 113.387 424 108.747 424 104C423.993 97.637 421.462 91.5367 416.963 87.0374C412.463 82.5381 406.363 80.0072 400 80ZM400 112C398.418 112 396.871 111.531 395.555 110.652C394.24 109.773 393.214 108.523 392.609 107.061C392.003 105.6 391.845 103.991 392.154 102.439C392.462 100.887 393.224 99.462 394.343 98.3431C395.462 97.2243 396.887 96.4624 398.439 96.1537C399.991 95.845 401.6 96.0035 403.061 96.609C404.523 97.2145 405.773 98.2398 406.652 99.5554C407.531 100.871 408 102.418 408 104C407.998 106.121 407.154 108.154 405.654 109.654C404.154 111.154 402.121 111.998 400 112V112Z" fill="#2C3F68"/>
<path d="M400 144C395.253 144 390.613 145.408 386.666 148.045C382.72 150.682 379.643 154.43 377.827 158.816C376.01 163.201 375.535 168.027 376.461 172.682C377.387 177.338 379.673 181.614 383.029 184.971C386.386 188.327 390.662 190.613 395.318 191.539C399.973 192.465 404.799 191.99 409.184 190.173C413.57 188.357 417.318 185.28 419.955 181.334C422.592 177.387 424 172.747 424 168C423.993 161.637 421.462 155.537 416.963 151.037C412.463 146.538 406.363 144.007 400 144V144ZM400 176C398.418 176 396.871 175.531 395.555 174.652C394.24 173.773 393.214 172.523 392.609 171.061C392.003 169.6 391.845 167.991 392.154 166.439C392.462 164.887 393.224 163.462 394.343 162.343C395.462 161.224 396.887 160.462 398.439 160.154C399.991 159.845 401.6 160.003 403.061 160.609C404.523 161.214 405.773 162.24 406.652 163.555C407.531 164.871 408 166.418 408 168C407.998 170.121 407.154 172.154 405.654 173.654C404.154 175.154 402.121 175.998 400 176V176Z" fill="#2C3F68"/>
<path d="M168 176V152C168 149.878 167.157 147.843 165.657 146.343C164.157 144.843 162.122 144 160 144H64C61.8783 144 59.8435 144.843 58.3432 146.343C56.8429 147.843 56 149.878 56 152V200H72V160H152V176H168Z" fill="#2C3F68"/>
<path d="M88 200C88 204.747 89.4076 209.387 92.0447 213.334C94.6819 217.28 98.4302 220.357 102.816 222.173C107.201 223.99 112.027 224.465 116.682 223.539C121.338 222.613 125.614 220.327 128.971 216.971C132.327 213.614 134.613 209.338 135.539 204.682C136.465 200.027 135.99 195.201 134.173 190.816C132.357 186.43 129.28 182.682 125.334 180.045C121.387 177.408 116.747 176 112 176C105.637 176.007 99.5367 178.538 95.0374 183.037C90.5381 187.537 88.0072 193.637 88 200V200ZM120 200C120 201.582 119.531 203.129 118.652 204.445C117.773 205.76 116.523 206.786 115.061 207.391C113.6 207.997 111.991 208.155 110.439 207.846C108.887 207.538 107.462 206.776 106.343 205.657C105.224 204.538 104.462 203.113 104.154 201.561C103.845 200.009 104.003 198.4 104.609 196.939C105.214 195.477 106.24 194.227 107.555 193.348C108.871 192.469 110.418 192 112 192C114.121 192.002 116.154 192.846 117.654 194.346C119.154 195.846 119.998 197.879 120 200Z" fill="#2C3F68"/>
</svg>
