<?xml version="1.0" encoding="UTF-8" standalone="no"?> <svg xmlns="http://www.w3.org/2000/svg" viewBox="0 0 64 64"><g id="user-man-people-button-login"><circle cx="32" cy="32" r="29" style="fill:#2488ff"/><path d="M52.508,11.492,11.492,52.508A29,29,0,0,0,52.508,11.492Z" style="fill:#006df0"/><circle cx="32" cy="32" r="18" style="fill:#ffcd00"/><path d="M38,33H26a6,6,0,0,0-6,6v6.389a17.92,17.92,0,0,0,24,0V39A6,6,0,0,0,38,33Z" style="fill:#ed1c24"/><circle cx="32" cy="24" r="6" style="fill:#ed1c24"/><path d="M32,62A30,30,0,1,1,62,32,30.034,30.034,0,0,1,32,62ZM32,4A28,28,0,1,0,60,32,28.032,28.032,0,0,0,32,4Z" style="fill:#231f20"/><path d="M30,8.079a1,1,0,0,1-.078-2C30.61,6.028,31.31,6,32,6a1,1,0,0,1,0,2c-.638,0-1.285.025-1.921.076Z" style="fill:#231f20"/><path d="M7,33a1,1,0,0,1-1-1A25.952,25.952,0,0,1,25.76,6.757,1,1,0,1,1,26.24,8.7,23.958,23.958,0,0,0,8,32,1,1,0,0,1,7,33Z" style="fill:#231f20"/><path d="M32,13A19,19,0,1,0,51,32,19.021,19.021,0,0,0,32,13ZM21,44.938V39a5.006,5.006,0,0,1,5-5H38a5.006,5.006,0,0,1,5,5v5.938a16.925,16.925,0,0,1-22,0Zm24-2.006V39a7.008,7.008,0,0,0-7-7H26a7.008,7.008,0,0,0-7,7v3.932a17,17,0,1,1,26,0Z" style="fill:#231f20"/><path d="M32,17a7,7,0,1,0,7,7A7.008,7.008,0,0,0,32,17Zm0,12a5,5,0,1,1,5-5A5.006,5.006,0,0,1,32,29Z" style="fill:#231f20"/></g></svg>